<mxfile host="65bd71144e">
    <diagram id="C5RBs43oDa-KdzZeNtuy" name="Page-1">
        <mxGraphModel dx="1985" dy="2018" grid="1" gridSize="10" guides="1" tooltips="1" connect="1" arrows="1" fold="1" page="1" pageScale="1" pageWidth="827" pageHeight="1169" background="#FFFFFF" math="0" shadow="0">
            <root>
                <mxCell id="WIyWlLk6GJQsqaUBKTNV-0"/>
                <mxCell id="WIyWlLk6GJQsqaUBKTNV-1" parent="WIyWlLk6GJQsqaUBKTNV-0"/>
                <mxCell id="_9OkSj2q_ekSHdFJHGK0-44" style="edgeStyle=orthogonalEdgeStyle;rounded=0;orthogonalLoop=1;jettySize=auto;html=1;exitX=1;exitY=0.5;exitDx=0;exitDy=0;entryX=0;entryY=0.5;entryDx=0;entryDy=0;fontColor=#000000;fontFamily=Arial;fontSource=https%3A%2F%2Ffonts.googleapis.com%2Fcss%3Ffamily%3DArial;strokeColor=#000000;" parent="WIyWlLk6GJQsqaUBKTNV-1" source="_9OkSj2q_ekSHdFJHGK0-19" target="_9OkSj2q_ekSHdFJHGK0-23" edge="1">
                    <mxGeometry relative="1" as="geometry"/>
                </mxCell>
                <mxCell id="_9OkSj2q_ekSHdFJHGK0-19" value="&lt;font&gt;Mandatory User Information&lt;/font&gt;" style="swimlane;whiteSpace=wrap;html=1;fontFamily=Arial;fontSource=https%3A%2F%2Ffonts.googleapis.com%2Fcss%3Ffamily%3DArial;strokeColor=#000000;fillColor=#808080;fontColor=#000000;" parent="WIyWlLk6GJQsqaUBKTNV-1" vertex="1">
                    <mxGeometry x="-750" y="-1054" width="400" height="130" as="geometry"/>
                </mxCell>
                <mxCell id="_9OkSj2q_ekSHdFJHGK0-3" value="Email" style="rectangle;whiteSpace=wrap;html=1;fontFamily=Arial;fontSource=https%3A%2F%2Ffonts.googleapis.com%2Fcss%3Ffamily%3DArial;strokeColor=#000000;fillColor=#B3B3B3;fontColor=#000000;" parent="_9OkSj2q_ekSHdFJHGK0-19" vertex="1">
                    <mxGeometry x="10" y="30" width="120" height="40" as="geometry"/>
                </mxCell>
                <mxCell id="_9OkSj2q_ekSHdFJHGK0-5" value="API Key Preference" style="rectangle;whiteSpace=wrap;html=1;fontFamily=Arial;fontSource=https%3A%2F%2Ffonts.googleapis.com%2Fcss%3Ffamily%3DArial;strokeColor=#000000;fillColor=#B3B3B3;fontColor=#000000;" parent="_9OkSj2q_ekSHdFJHGK0-19" vertex="1">
                    <mxGeometry x="270" y="30" width="120" height="40" as="geometry"/>
                </mxCell>
                <mxCell id="_9OkSj2q_ekSHdFJHGK0-21" value="&lt;font&gt;Search&lt;/font&gt;" style="rectangle;whiteSpace=wrap;html=1;fontFamily=Arial;fontSource=https%3A%2F%2Ffonts.googleapis.com%2Fcss%3Ffamily%3DArial;strokeColor=#000000;fillColor=#B3B3B3;fontColor=#000000;" parent="_9OkSj2q_ekSHdFJHGK0-19" vertex="1">
                    <mxGeometry x="140" y="80" width="120" height="40" as="geometry"/>
                </mxCell>
                <mxCell id="_9OkSj2q_ekSHdFJHGK0-4" value="Save Preference" style="rectangle;whiteSpace=wrap;html=1;fontFamily=Arial;fontSource=https%3A%2F%2Ffonts.googleapis.com%2Fcss%3Ffamily%3DArial;strokeColor=#000000;fillColor=#B3B3B3;fontColor=#000000;" parent="_9OkSj2q_ekSHdFJHGK0-19" vertex="1">
                    <mxGeometry x="270" y="80" width="120" height="40" as="geometry"/>
                </mxCell>
                <mxCell id="_9OkSj2q_ekSHdFJHGK0-23" value="Optional" style="swimlane;whiteSpace=wrap;html=1;fontFamily=Arial;fontSource=https%3A%2F%2Ffonts.googleapis.com%2Fcss%3Ffamily%3DArial;strokeColor=#000000;fillColor=#808080;fontColor=#000000;" parent="WIyWlLk6GJQsqaUBKTNV-1" vertex="1">
                    <mxGeometry x="-330" y="-1054" width="140" height="130" as="geometry"/>
                </mxCell>
                <mxCell id="_9OkSj2q_ekSHdFJHGK0-7" value="NCBI API Key" style="rectangle;whiteSpace=wrap;html=1;fontFamily=Arial;fontSource=https%3A%2F%2Ffonts.googleapis.com%2Fcss%3Ffamily%3DArial;strokeColor=#000000;fillColor=#B3B3B3;fontColor=#000000;" parent="_9OkSj2q_ekSHdFJHGK0-23" vertex="1">
                    <mxGeometry x="10" y="30" width="120" height="40" as="geometry"/>
                </mxCell>
                <mxCell id="_9OkSj2q_ekSHdFJHGK0-9" value="Save Location" style="rectangle;whiteSpace=wrap;html=1;fontFamily=Arial;fontSource=https%3A%2F%2Ffonts.googleapis.com%2Fcss%3Ffamily%3DArial;strokeColor=#000000;fillColor=#B3B3B3;fontColor=#000000;" parent="_9OkSj2q_ekSHdFJHGK0-23" vertex="1">
                    <mxGeometry x="10" y="80" width="120" height="40" as="geometry"/>
                </mxCell>
                <mxCell id="_9OkSj2q_ekSHdFJHGK0-43" style="edgeStyle=orthogonalEdgeStyle;rounded=0;orthogonalLoop=1;jettySize=auto;html=1;exitX=0.5;exitY=1;exitDx=0;exitDy=0;entryX=0.5;entryY=0;entryDx=0;entryDy=0;fontColor=#000000;fontFamily=Arial;fontSource=https%3A%2F%2Ffonts.googleapis.com%2Fcss%3Ffamily%3DArial;strokeColor=#000000;" parent="WIyWlLk6GJQsqaUBKTNV-1" source="_9OkSj2q_ekSHdFJHGK0-21" target="_9OkSj2q_ekSHdFJHGK0-20" edge="1">
                    <mxGeometry relative="1" as="geometry"/>
                </mxCell>
                <mxCell id="_9OkSj2q_ekSHdFJHGK0-20" value="Search Parameters" style="swimlane;whiteSpace=wrap;html=1;fontFamily=Arial;fontSource=https%3A%2F%2Ffonts.googleapis.com%2Fcss%3Ffamily%3DArial;strokeColor=#000000;fillColor=#808080;fontColor=#000000;" parent="WIyWlLk6GJQsqaUBKTNV-1" vertex="1">
                    <mxGeometry x="-750" y="-904" width="400" height="80" as="geometry"/>
                </mxCell>
                <mxCell id="_9OkSj2q_ekSHdFJHGK0-32" value="Product Keyword" style="rounded=0;whiteSpace=wrap;html=1;fontFamily=Arial;fontSource=https%3A%2F%2Ffonts.googleapis.com%2Fcss%3Ffamily%3DArial;strokeColor=#000000;fillColor=#B3B3B3;fontColor=#000000;" parent="_9OkSj2q_ekSHdFJHGK0-20" vertex="1">
                    <mxGeometry x="140" y="30" width="120" height="40" as="geometry"/>
                </mxCell>
                <mxCell id="_9OkSj2q_ekSHdFJHGK0-95" style="edgeStyle=orthogonalEdgeStyle;rounded=0;orthogonalLoop=1;jettySize=auto;html=1;fontColor=#000000;fontFamily=Arial;fontSource=https%3A%2F%2Ffonts.googleapis.com%2Fcss%3Ffamily%3DArial;strokeColor=#000000;" parent="_9OkSj2q_ekSHdFJHGK0-20" edge="1">
                    <mxGeometry relative="1" as="geometry">
                        <mxPoint x="420" y="50" as="targetPoint"/>
                        <mxPoint x="400" y="50" as="sourcePoint"/>
                    </mxGeometry>
                </mxCell>
                <mxCell id="_9OkSj2q_ekSHdFJHGK0-33" value="Product Pairing" style="rounded=0;whiteSpace=wrap;html=1;fontFamily=Arial;fontSource=https%3A%2F%2Ffonts.googleapis.com%2Fcss%3Ffamily%3DArial;strokeColor=#000000;fillColor=#B3B3B3;fontColor=#000000;" parent="_9OkSj2q_ekSHdFJHGK0-20" vertex="1">
                    <mxGeometry x="270" y="30" width="120" height="40" as="geometry"/>
                </mxCell>
                <mxCell id="_9OkSj2q_ekSHdFJHGK0-34" value="Trimming Margin" style="rounded=0;whiteSpace=wrap;html=1;fontFamily=Arial;fontSource=https%3A%2F%2Ffonts.googleapis.com%2Fcss%3Ffamily%3DArial;strokeColor=#000000;fillColor=#B3B3B3;fontColor=#000000;" parent="_9OkSj2q_ekSHdFJHGK0-20" vertex="1">
                    <mxGeometry x="10" y="30" width="120" height="40" as="geometry"/>
                </mxCell>
                <mxCell id="_9OkSj2q_ekSHdFJHGK0-47" value="Locate Protein Record&lt;div&gt;Link Nucleotide Record&lt;/div&gt;&lt;div&gt;Search Nucleotide Record&lt;/div&gt;" style="shape=process;whiteSpace=wrap;html=1;backgroundOutline=1;fontFamily=Arial;fontSource=https%3A%2F%2Ffonts.googleapis.com%2Fcss%3Ffamily%3DArial;strokeColor=#000000;fillColor=#E6E6E6;fontColor=#000000;" parent="WIyWlLk6GJQsqaUBKTNV-1" vertex="1">
                    <mxGeometry x="-675" y="-804" width="250" height="60" as="geometry"/>
                </mxCell>
                <mxCell id="_9OkSj2q_ekSHdFJHGK0-48" style="edgeStyle=orthogonalEdgeStyle;rounded=0;orthogonalLoop=1;jettySize=auto;html=1;exitX=0.5;exitY=1;exitDx=0;exitDy=0;entryX=0.5;entryY=0;entryDx=0;entryDy=0;fontColor=#000000;fontFamily=Arial;fontSource=https%3A%2F%2Ffonts.googleapis.com%2Fcss%3Ffamily%3DArial;strokeColor=#000000;" parent="WIyWlLk6GJQsqaUBKTNV-1" source="_9OkSj2q_ekSHdFJHGK0-20" target="_9OkSj2q_ekSHdFJHGK0-47" edge="1">
                    <mxGeometry relative="1" as="geometry"/>
                </mxCell>
                <mxCell id="_9OkSj2q_ekSHdFJHGK0-92" value="Display Saved Results Location" style="rounded=1;whiteSpace=wrap;html=1;fontSize=12;glass=0;strokeWidth=1;shadow=0;strokeColor=#000000;fillColor=#E6E6E6;fontColor=#000000;fontFamily=Arial;fontSource=https%3A%2F%2Ffonts.googleapis.com%2Fcss%3Ffamily%3DArial;" parent="WIyWlLk6GJQsqaUBKTNV-1" vertex="1">
                    <mxGeometry x="-750" y="-624" width="1160" height="40" as="geometry"/>
                </mxCell>
                <mxCell id="_9OkSj2q_ekSHdFJHGK0-52" value="Convert Failed Records CDS to JSON" style="shape=process;whiteSpace=wrap;html=1;backgroundOutline=1;strokeColor=#000000;fillColor=#EBA98D;fontColor=#000000;fontFamily=Arial;fontSource=https%3A%2F%2Ffonts.googleapis.com%2Fcss%3Ffamily%3DArial;" parent="WIyWlLk6GJQsqaUBKTNV-1" vertex="1">
                    <mxGeometry x="-750" y="-704" width="170" height="60" as="geometry"/>
                </mxCell>
                <mxCell id="_9OkSj2q_ekSHdFJHGK0-54" style="edgeStyle=orthogonalEdgeStyle;rounded=0;orthogonalLoop=1;jettySize=auto;html=1;exitX=0.5;exitY=1;exitDx=0;exitDy=0;entryX=0.5;entryY=0;entryDx=0;entryDy=0;strokeColor=#000000;fillColor=#CCCCCC;fontColor=#000000;fontFamily=Arial;fontSource=https%3A%2F%2Ffonts.googleapis.com%2Fcss%3Ffamily%3DArial;" parent="WIyWlLk6GJQsqaUBKTNV-1" source="_9OkSj2q_ekSHdFJHGK0-47" target="_9OkSj2q_ekSHdFJHGK0-52" edge="1">
                    <mxGeometry relative="1" as="geometry">
                        <Array as="points">
                            <mxPoint x="-550" y="-724"/>
                            <mxPoint x="-665" y="-724"/>
                        </Array>
                    </mxGeometry>
                </mxCell>
                <mxCell id="_9OkSj2q_ekSHdFJHGK0-51" value="Trim Hit Records&lt;div&gt;Write to FASTA&lt;/div&gt;" style="shape=process;whiteSpace=wrap;html=1;backgroundOutline=1;fillColor=#cdeb8b;strokeColor=#000000;fontColor=#000000;fontFamily=Arial;fontSource=https%3A%2F%2Ffonts.googleapis.com%2Fcss%3Ffamily%3DArial;" parent="WIyWlLk6GJQsqaUBKTNV-1" vertex="1">
                    <mxGeometry x="-530" y="-704" width="170" height="60" as="geometry"/>
                </mxCell>
                <mxCell id="_9OkSj2q_ekSHdFJHGK0-53" style="edgeStyle=orthogonalEdgeStyle;rounded=0;orthogonalLoop=1;jettySize=auto;html=1;exitX=0.5;exitY=1;exitDx=0;exitDy=0;entryX=0.5;entryY=0;entryDx=0;entryDy=0;strokeColor=#000000;fillColor=#CCCCCC;fontColor=#000000;fontFamily=Arial;fontSource=https%3A%2F%2Ffonts.googleapis.com%2Fcss%3Ffamily%3DArial;" parent="WIyWlLk6GJQsqaUBKTNV-1" source="_9OkSj2q_ekSHdFJHGK0-47" target="_9OkSj2q_ekSHdFJHGK0-51" edge="1">
                    <mxGeometry relative="1" as="geometry">
                        <Array as="points">
                            <mxPoint x="-550" y="-724"/>
                            <mxPoint x="-445" y="-724"/>
                        </Array>
                    </mxGeometry>
                </mxCell>
                <mxCell id="WIyWlLk6GJQsqaUBKTNV-3" value="&lt;font&gt;Welcome &amp;amp; System/Environment Information&lt;/font&gt;" style="rounded=1;whiteSpace=wrap;html=1;fontSize=12;glass=0;strokeWidth=1;shadow=0;strokeColor=#000000;fillColor=#E6E6E6;fontColor=#000000;fontFamily=Arial;fontSource=https%3A%2F%2Ffonts.googleapis.com%2Fcss%3Ffamily%3DArial;" parent="WIyWlLk6GJQsqaUBKTNV-1" vertex="1">
                    <mxGeometry x="-750" y="-1104" width="1160" height="40" as="geometry"/>
                </mxCell>
                <mxCell id="_9OkSj2q_ekSHdFJHGK0-39" value="Optional" style="swimlane;whiteSpace=wrap;html=1;fontFamily=Arial;fontSource=https%3A%2F%2Ffonts.googleapis.com%2Fcss%3Ffamily%3DArial;strokeColor=#000000;fillColor=#808080;fontColor=#000000;" parent="WIyWlLk6GJQsqaUBKTNV-1" vertex="1">
                    <mxGeometry x="-328.75" y="-904" width="138.75" height="180" as="geometry"/>
                </mxCell>
                <mxCell id="_9OkSj2q_ekSHdFJHGK0-40" value="Product Pairs" style="rounded=0;whiteSpace=wrap;html=1;fontFamily=Arial;fontSource=https%3A%2F%2Ffonts.googleapis.com%2Fcss%3Ffamily%3DArial;strokeColor=#000000;fillColor=#B3B3B3;fontColor=#000000;" parent="_9OkSj2q_ekSHdFJHGK0-39" vertex="1">
                    <mxGeometry x="8.75" y="30" width="120" height="40" as="geometry"/>
                </mxCell>
                <mxCell id="_9OkSj2q_ekSHdFJHGK0-41" value="Separation Direction" style="rounded=0;whiteSpace=wrap;html=1;fontFamily=Arial;fontSource=https%3A%2F%2Ffonts.googleapis.com%2Fcss%3Ffamily%3DArial;strokeColor=#000000;fillColor=#B3B3B3;fontColor=#000000;" parent="_9OkSj2q_ekSHdFJHGK0-39" vertex="1">
                    <mxGeometry x="8.75" y="130" width="120" height="40" as="geometry"/>
                </mxCell>
                <mxCell id="_9OkSj2q_ekSHdFJHGK0-42" value="Pair Separation" style="rounded=0;whiteSpace=wrap;html=1;fontFamily=Arial;fontSource=https%3A%2F%2Ffonts.googleapis.com%2Fcss%3Ffamily%3DArial;strokeColor=#000000;fontColor=#000000;fillColor=#B3B3B3;" parent="_9OkSj2q_ekSHdFJHGK0-39" vertex="1">
                    <mxGeometry x="8.75" y="80" width="120" height="40" as="geometry"/>
                </mxCell>
                <mxCell id="_9OkSj2q_ekSHdFJHGK0-6" value="Input File Location" style="rectangle;whiteSpace=wrap;html=1;fontFamily=Arial;fontSource=https%3A%2F%2Ffonts.googleapis.com%2Fcss%3Ffamily%3DArial;strokeColor=#000000;fillColor=#B3B3B3;fontColor=#000000;" parent="WIyWlLk6GJQsqaUBKTNV-1" vertex="1">
                    <mxGeometry x="-610" y="-1024" width="120" height="40" as="geometry"/>
                </mxCell>
                <mxCell id="_9OkSj2q_ekSHdFJHGK0-25" value="Batch Management" style="rectangle;whiteSpace=wrap;html=1;fontFamily=Arial;fontSource=https%3A%2F%2Ffonts.googleapis.com%2Fcss%3Ffamily%3DArial;strokeColor=#000000;fillColor=#B3B3B3;fontColor=#000000;" parent="WIyWlLk6GJQsqaUBKTNV-1" vertex="1">
                    <mxGeometry x="-740" y="-974" width="120" height="40" as="geometry"/>
                </mxCell>
                <mxCell id="116" value="Mandatory User Information" style="swimlane;whiteSpace=wrap;html=1;fontColor=#000000;fontFamily=Arial;fontSource=https%3A%2F%2Ffonts.googleapis.com%2Fcss%3Ffamily%3DArial;strokeColor=#000000;fillColor=#797979;" parent="WIyWlLk6GJQsqaUBKTNV-1" vertex="1">
                    <mxGeometry x="-146" y="-814" width="400" height="80" as="geometry"/>
                </mxCell>
                <mxCell id="117" value="Save Preference" style="rectangle;whiteSpace=wrap;html=1;fontColor=#000000;fontFamily=Arial;fontSource=https%3A%2F%2Ffonts.googleapis.com%2Fcss%3Ffamily%3DArial;strokeColor=#000000;fillColor=#cccccc;" parent="116" vertex="1">
                    <mxGeometry x="270" y="30" width="120" height="40" as="geometry"/>
                </mxCell>
                <mxCell id="118" value="&amp;nbsp;SMILES Use" style="rectangle;whiteSpace=wrap;html=1;fontColor=#000000;fontFamily=Arial;fontSource=https%3A%2F%2Ffonts.googleapis.com%2Fcss%3Ffamily%3DArial;strokeColor=#000000;fillColor=#cccccc;" parent="116" vertex="1">
                    <mxGeometry x="10" y="30" width="120" height="40" as="geometry"/>
                </mxCell>
                <mxCell id="119" value="Input Location" style="rectangle;whiteSpace=wrap;html=1;fontColor=#000000;fontFamily=Arial;fontSource=https%3A%2F%2Ffonts.googleapis.com%2Fcss%3Ffamily%3DArial;strokeColor=#000000;fillColor=#cccccc;" parent="116" vertex="1">
                    <mxGeometry x="140" y="30" width="120" height="40" as="geometry"/>
                </mxCell>
                <mxCell id="120" value="Extract antiSMASH JSON Result&lt;div&gt;Parse Region Polymer(s)&lt;/div&gt;&lt;div&gt;Assemble Polymer Synthesis CSV&lt;/div&gt;" style="shape=process;whiteSpace=wrap;html=1;backgroundOutline=1;fontColor=#000000;fontFamily=Arial;fontSource=https%3A%2F%2Ffonts.googleapis.com%2Fcss%3Ffamily%3DArial;strokeColor=#000000;fillColor=#e6e6e6;" parent="WIyWlLk6GJQsqaUBKTNV-1" vertex="1">
                    <mxGeometry x="-71" y="-714" width="250" height="70" as="geometry"/>
                </mxCell>
                <mxCell id="121" value="Optional" style="swimlane;whiteSpace=wrap;html=1;fontColor=#000000;fontFamily=Arial;fontSource=https%3A%2F%2Ffonts.googleapis.com%2Fcss%3Ffamily%3DArial;strokeColor=#000000;fillColor=#797979;" parent="WIyWlLk6GJQsqaUBKTNV-1" vertex="1">
                    <mxGeometry x="274" y="-814" width="140" height="80" as="geometry"/>
                </mxCell>
                <mxCell id="122" value="Save Location" style="rectangle;whiteSpace=wrap;html=1;fontColor=#000000;fontFamily=Arial;fontSource=https%3A%2F%2Ffonts.googleapis.com%2Fcss%3Ffamily%3DArial;strokeColor=#000000;fillColor=#cccccc;" parent="121" vertex="1">
                    <mxGeometry x="10" y="30" width="120" height="40" as="geometry"/>
                </mxCell>
                <mxCell id="123" style="edgeStyle=orthogonalEdgeStyle;rounded=0;orthogonalLoop=1;jettySize=auto;html=1;exitX=1;exitY=0.5;exitDx=0;exitDy=0;entryX=0;entryY=0.5;entryDx=0;entryDy=0;fontColor=#000000;fontFamily=Arial;fontSource=https%3A%2F%2Ffonts.googleapis.com%2Fcss%3Ffamily%3DArial;strokeColor=#000000;" parent="WIyWlLk6GJQsqaUBKTNV-1" source="116" target="121" edge="1">
                    <mxGeometry relative="1" as="geometry"/>
                </mxCell>
                <mxCell id="124" style="edgeStyle=none;html=1;exitX=0.5;exitY=1;exitDx=0;exitDy=0;entryX=0.5;entryY=0;entryDx=0;entryDy=0;strokeColor=#000000;fontFamily=Tahoma;fontSize=12;fontColor=#000000;fillColor=#CCCCCC;" parent="WIyWlLk6GJQsqaUBKTNV-1" source="119" target="120" edge="1">
                    <mxGeometry relative="1" as="geometry"/>
                </mxCell>
                <mxCell id="125" value="&lt;span style=&quot;background-color: initial;&quot;&gt;Isolate FASTA Records&lt;/span&gt;&lt;div&gt;&lt;div&gt;Prepare Output Location&lt;/div&gt;&lt;div&gt;Run antiSMASH&lt;/div&gt;&lt;/div&gt;" style="shape=process;whiteSpace=wrap;html=1;backgroundOutline=1;strokeColor=#000000;fillColor=#e5e5e5;fontColor=#000000;fontFamily=Arial;fontSource=https%3A%2F%2Ffonts.googleapis.com%2Fcss%3Ffamily%3DArial;" parent="WIyWlLk6GJQsqaUBKTNV-1" vertex="1">
                    <mxGeometry x="-71" y="-954" width="250" height="60" as="geometry"/>
                </mxCell>
                <mxCell id="126" value="Mandatory User Information" style="swimlane;whiteSpace=wrap;html=1;strokeColor=#000000;fillColor=#808080;fontColor=#000000;fontFamily=Arial;fontSource=https%3A%2F%2Ffonts.googleapis.com%2Fcss%3Ffamily%3DArial;" parent="WIyWlLk6GJQsqaUBKTNV-1" vertex="1">
                    <mxGeometry x="-146" y="-1054" width="400" height="80" as="geometry"/>
                </mxCell>
                <mxCell id="127" value="Input Location" style="rectangle;whiteSpace=wrap;html=1;strokeColor=#000000;fillColor=#CCCCCC;fontColor=#000000;fontFamily=Arial;fontSource=https%3A%2F%2Ffonts.googleapis.com%2Fcss%3Ffamily%3DArial;" parent="126" vertex="1">
                    <mxGeometry x="140" y="30" width="120" height="40" as="geometry"/>
                </mxCell>
                <mxCell id="128" value="Save Preference" style="rectangle;whiteSpace=wrap;html=1;strokeColor=#000000;fillColor=#CCCCCC;fontColor=#000000;fontFamily=Arial;fontSource=https%3A%2F%2Ffonts.googleapis.com%2Fcss%3Ffamily%3DArial;" parent="126" vertex="1">
                    <mxGeometry x="270" y="30" width="120" height="40" as="geometry"/>
                </mxCell>
                <mxCell id="129" value="OS Path Conversion" style="rectangle;whiteSpace=wrap;html=1;strokeColor=#000000;fillColor=#CCCCCC;fontColor=#000000;fontFamily=Arial;fontSource=https%3A%2F%2Ffonts.googleapis.com%2Fcss%3Ffamily%3DArial;" parent="126" vertex="1">
                    <mxGeometry x="10" y="30" width="120" height="40" as="geometry"/>
                </mxCell>
                <mxCell id="130" value="Optional" style="swimlane;whiteSpace=wrap;html=1;strokeColor=#000000;fillColor=#808080;fontColor=#000000;fontFamily=Arial;fontSource=https%3A%2F%2Ffonts.googleapis.com%2Fcss%3Ffamily%3DArial;" parent="WIyWlLk6GJQsqaUBKTNV-1" vertex="1">
                    <mxGeometry x="274" y="-1054" width="140" height="80" as="geometry"/>
                </mxCell>
                <mxCell id="131" value="Save Location" style="rectangle;whiteSpace=wrap;html=1;strokeColor=#000000;fillColor=#CCCCCC;fontColor=#000000;fontFamily=Arial;fontSource=https%3A%2F%2Ffonts.googleapis.com%2Fcss%3Ffamily%3DArial;" parent="130" vertex="1">
                    <mxGeometry x="10" y="30" width="120" height="40" as="geometry"/>
                </mxCell>
                <mxCell id="132" style="edgeStyle=orthogonalEdgeStyle;rounded=0;orthogonalLoop=1;jettySize=auto;html=1;exitX=1;exitY=0.5;exitDx=0;exitDy=0;entryX=0;entryY=0.5;entryDx=0;entryDy=0;strokeColor=#000000;fillColor=#CCCCCC;fontColor=#000000;fontFamily=Arial;fontSource=https%3A%2F%2Ffonts.googleapis.com%2Fcss%3Ffamily%3DArial;" parent="WIyWlLk6GJQsqaUBKTNV-1" source="126" target="130" edge="1">
                    <mxGeometry relative="1" as="geometry"/>
                </mxCell>
                <mxCell id="133" style="edgeStyle=none;html=1;exitX=0.5;exitY=1;exitDx=0;exitDy=0;entryX=0.5;entryY=0;entryDx=0;entryDy=0;strokeColor=#000000;fontFamily=Tahoma;fontSize=12;fontColor=#000000;fillColor=#CCCCCC;" parent="WIyWlLk6GJQsqaUBKTNV-1" source="127" target="125" edge="1">
                    <mxGeometry relative="1" as="geometry"/>
                </mxCell>
            </root>
        </mxGraphModel>
    </diagram>
</mxfile>